Coordinates
version=1
nRows=16
nColumns=36
inDegrees=yes

Units are S.I. units (second, meters, Newtons, ...)
If the header above contains a line with 'inDegrees', this indicates whether rotational values are in degrees (yes) or radians (no).

endheader
time	pelvis_tilt	pelvis_list	pelvis_rotation	pelvis_tx	pelvis_ty	pelvis_tz	hip_flexion_r	hip_adduction_r	hip_rotation_r	knee_angle_r	knee_angle_r_beta	ankle_angle_r	subtalar_angle_r	mtp_angle_r	hip_flexion_l	hip_adduction_l	hip_rotation_l	knee_angle_l	knee_angle_l_beta	ankle_angle_l	subtalar_angle_l	mtp_angle_l	lumbar_extension	lumbar_bending	lumbar_rotation	arm_flex_r	arm_add_r	arm_rot_r	elbow_flex_r	pro_sup_r	arm_flex_l	arm_add_l	arm_rot_l	elbow_flex_l	pro_sup_l
      1.40000000	      3.51146951	     -1.04647256	     -2.89287122	      0.19950972	      1.24362886	     -0.57003520	     -5.14689099	      0.35320007	      0.01539796	     11.83919020	      0.20663285	     16.92861864	     -3.98514122	     -7.49999984	     -5.87153982	     -2.66381744	      2.03209156	      9.10766302	      0.15895871	      8.21544280	     -4.00470859	     -7.49999984	    -13.31336630	      2.19480832	     -5.75867304	      5.10204740	    -13.64744340	     17.42743470	     28.15589484	     68.03579958	     -3.21653145	    -11.64947777	     -3.30970666	     30.17909262	     69.99712933
      1.41666670	      3.58203901	     -1.07706578	     -2.95584579	      0.19953017	      1.24348631	     -0.56965819	     -5.24625419	      0.36837874	     -0.02411114	     11.82490121	      0.20638346	     16.90927416	     -3.95259292	     -7.49999984	     -5.97990532	     -2.69390714	      1.97015931	      9.08687779	      0.15859594	      8.22818505	     -3.93604657	     -7.49999984	    -13.39536860	      2.17433740	     -5.63171071	      4.99649963	    -13.63012880	     17.57452448	     28.70451380	     67.93892070	     -3.42329128	    -11.60114296	     -3.33541464	     31.05830622	     69.85467192
      1.43333330	      3.58579626	     -1.08279899	     -3.05797898	      0.19934633	      1.24371100	     -0.56992384	     -5.34057702	      0.33478283	     -0.19414913	     11.74371916	      0.20496657	     16.90201871	     -3.83829097	     -7.49999985	     -6.08843716	     -2.68337687	      1.96565848	      8.98625430	      0.15683972	      8.16157580	     -3.94042223	     -7.49999985	    -13.27948711	      2.12759588	     -5.95171945	      5.65598901	    -13.36600921	     18.78784400	     27.86681605	     68.45915152	     -3.92328513	    -11.64418700	     -3.47315630	     31.75948326	     70.27379209
      1.45000000	      3.64664808	     -1.08762438	     -3.10394109	      0.19931757	      1.24354217	     -0.56955031	     -5.52739179	      0.33055744	     -0.15978867	     11.62089945	      0.20282296	     16.93019263	     -4.02107979	     -7.49999985	     -6.18587023	     -2.67952412	      1.92903018	      8.99427936	      0.15697979	      8.14646297	     -3.92788179	     -7.49999985	    -13.44985402	      2.11734351	     -5.83254928	      5.42043950	    -13.47513542	     18.79852637	     28.82512055	     67.82341033	     -4.25947896	    -11.55306643	     -3.66613430	     32.77230520	     69.52263438
      1.46666670	      3.56722756	     -1.05432832	     -3.12486337	      0.19918914	      1.24349357	     -0.56993392	     -5.50367897	      0.27222116	     -0.34883151	     11.60588078	      0.20256083	     17.09012062	     -3.86053153	     -7.49999985	     -6.06772294	     -2.63547345	      1.99948973	      9.04048816	      0.15778628	      8.17852680	     -3.94057110	     -7.49999985	    -13.22346256	      2.14220240	     -6.21537510	      5.88679003	    -13.13656909	     19.23830086	     27.89598369	     67.99677601	     -4.42598179	    -11.42504109	     -3.94903142	     32.58179476	     69.77525408
      1.48333330	      3.55816375	     -1.06760025	     -3.12034013	      0.19927747	      1.24318058	     -0.56955393	     -5.49102089	      0.28887470	     -0.37094487	     11.62683372	      0.20292653	     17.10991428	     -3.95958018	     -7.49999987	     -6.05317283	     -2.65139008	      2.02515478	      9.04663073	      0.15789349	      8.22779173	     -3.97678177	     -7.49999987	    -13.31922260	      2.14094864	     -7.17866792	      6.63633535	    -12.87463165	     20.53821629	     27.36268492	     69.42514955	     -5.55665941	    -11.14384004	     -6.39203616	     33.93089879	     71.73523394
      1.50000000	      3.46941626	     -1.07995248	     -3.30813145	      0.19939240	      1.23914439	     -0.56960308	     -5.41541558	      0.35642894	      0.38491774	     11.52111330	      0.20108136	     16.60814068	     -5.13374738	     -7.49999987	     -5.98304187	     -2.67416395	      1.62294310	      9.10019431	      0.15882835	      8.55168379	     -3.41539947	     -7.49999987	    -13.29777753	      2.14644155	     -6.86000687	      6.24265348	    -12.92882456	     20.06312694	     28.50989404	     68.53473752	     -5.68366945	    -11.13701635	     -6.17173386	     34.34423317	     70.91513828
      1.51666670	      3.52035518	     -1.04172862	     -3.31223480	      0.19948643	      1.23916240	     -0.56934627	     -5.45345912	      0.22536677	     -0.31079034	     11.55677196	      0.20170372	     17.24406111	     -3.80232865	     -7.49999987	     -6.06180102	     -2.59065189	      1.98337546	      9.07967720	      0.15847026	      8.24960836	     -4.05940670	     -7.49999987	    -13.35901787	      2.13537923	     -6.60877527	      6.12374731	    -13.01381550	     19.79673600	     28.87575023	     66.32417482	     -5.42421431	    -11.25183571	     -5.15316671	     33.99489057	     68.76421347
      1.53333330	      3.52434580	     -1.03276830	     -3.34355399	      0.19937988	      1.23944146	     -0.56963803	     -5.49025495	      0.21939406	     -0.21406216	     11.46288509	      0.20006509	     17.15980563	     -3.92925458	     -7.49999987	     -6.08777527	     -2.58001398	      1.95721530	      9.11184468	      0.15903169	      8.29933032	     -3.94618218	     -7.49999987	    -13.36553472	      2.15925928	     -7.40737480	      7.17062671	    -12.85757215	     21.37237105	     27.88698126	     68.22574141	     -6.14135764	    -11.24808644	     -5.83809897	     34.54059238	     70.58968915
      1.55000000	      3.50219805	     -1.01824340	     -3.39522130	      0.19948377	      1.23941636	     -0.56915174	     -5.47840786	      0.17406843	     -0.28652454	     11.47309530	      0.20024329	     17.27869116	     -3.66173774	     -7.49999987	     -6.07431385	     -2.55873858	      1.99120421	      9.15664426	      0.15981359	      8.35171272	     -3.92284784	     -7.49999987	    -13.39897729	      2.13407105	     -7.01501782	      6.62106992	    -13.05669870	     20.63493965	     28.62937471	     66.08108769	     -5.91357143	    -11.14921699	     -5.75013584	     34.38799914	     68.54551924
      1.56666670	      3.53992372	     -0.99684583	     -3.40542435	      0.19938539	      1.23970405	     -0.56951864	     -5.59261517	      0.14253776	     -0.25193737	     11.40040999	      0.19897469	     17.20504535	     -3.81662531	     -7.49999987	     -6.15018980	     -2.54404065	      2.01458803	      9.10426875	      0.15889947	      8.36988256	     -3.88482200	     -7.49999987	    -13.46284842	      2.11783857	     -8.23424377	      7.81624575	    -12.77949873	     22.22823769	     27.34109607	     69.15016726	     -7.24879560	    -10.97920804	     -7.85154734	     35.68855426	     71.68161592
      1.58333330	      3.55507403	     -0.98991262	     -3.39994112	      0.19945195	      1.23978757	     -0.56914451	     -5.61403130	      0.12078525	     -0.25124933	     11.47754900	      0.20032102	     17.17442944	     -3.91751356	     -7.49999987	     -6.19379293	     -2.54012513	      2.02355317	      9.05393298	      0.15802094	      8.37972260	     -3.87490869	     -7.49999987	    -13.61268131	      2.11849018	     -8.22007403	      7.45348603	    -13.02881236	     22.01776802	     27.77122110	     68.64253569	     -7.44669712	    -10.96690479	     -7.92613755	     36.11503721	     71.14634131
      1.60000000	      3.52581584	     -0.97494430	     -3.38347777	      0.19901875	      1.24106224	     -0.56979056	     -5.56584989	      0.09406520	     -0.30528966	     11.56211192	      0.20179692	     17.24397043	     -3.83701571	     -7.49999987	     -6.18496179	     -2.52963606	      1.91502718	      8.99728001	      0.15703216	      8.49990532	     -3.62570121	     -7.49999987	    -13.61571810	      2.12301954	     -8.20558391	      7.18321744	    -13.23965741	     21.90119990	     27.59852480	     68.62931570	     -7.43207803	    -10.92156035	     -7.99793714	     35.91164735	     71.22055589
      1.61666670	      3.42339763	     -0.95503506	     -3.34512471	      0.19950897	      1.24405770	     -0.56926660	     -5.44396203	      0.08462364	     -0.26878498	     11.62492607	      0.20289324	     17.23197455	     -3.88570857	     -7.49999987	     -6.11574049	     -2.50504096	      2.07337482	      8.87861053	      0.15496099	      8.33872921	     -3.97846779	     -7.49999987	    -13.48630855	      2.13856275	     -8.15491128	      7.06946091	    -13.23784487	     21.57362288	     26.64482205	     68.44485724	     -7.49967462	    -10.95382855	     -7.97095261	     35.50049463	     71.26094733
      1.63333330	      3.38040430	     -0.91797043	     -3.33457568	      0.19916365	      1.24109472	     -0.56998433	     -5.35569162	      0.05756307	     -0.24060688	     11.69964002	      0.20419724	     17.28515246	     -3.93894702	     -7.49999987	     -6.07552475	     -2.47050221	      2.02164713	      8.81268674	      0.15381040	      8.43786887	     -3.90407784	     -7.49999987	    -13.53970606	      2.12196539	     -8.17139832	      6.90934737	    -13.38338860	     21.21134242	     26.24142002	     68.16212439	     -8.20850549	    -11.01237234	     -8.82933333	     34.46427536	     70.91533779
      1.65000000	      3.23496302	     -0.90792963	     -3.31743519	      0.19955400	      1.24394053	     -0.56942072	     -5.10417088	      0.06839120	     -0.15401244	     11.89422993	      0.20759347	     17.35381849	     -4.09663082	     -7.49999987	     -5.84737213	     -2.48087553	      2.04261181	      8.92078676	      0.15569710	      8.54789152	     -3.89730930	     -7.49999987	    -13.48756682	      2.13186577	     -8.39318486	      7.02610569	    -13.40350404	     21.05655859	     25.02692440	     68.27051149	     -8.89949242	    -11.07904124	     -9.83588745	     33.34938030	     71.00998106
